<svg xmlns="http://www.w3.org/2000/svg" viewBox="0 0 978 182" width="978" height="182">
	<style>
		tspan { white-space:pre }
	</style>
	<path id="LevelingUp();" fill="#343435" d="M185.12 113.36L183.47 126L134.8 126L134.8 47.28L150.4 47.28L150.4 113.36L185.12 113.36ZM247.91 100.44L208.35 100.44Q208.97 108.58 213.13 112.51Q217.34 116.44 223.89 116.44Q228.04 116.44 231.86 115.13Q235.67 113.82 239.54 111.26L245.8 119.85Q241.42 123.55 235.56 125.66Q229.69 127.71 222.92 127.71Q213.3 127.71 206.53 123.72Q199.81 119.74 196.34 112.57Q192.92 105.39 192.92 95.94Q192.92 86.89 196.28 79.66Q199.7 72.38 206.07 68.22Q212.5 64.01 221.21 64.01Q229.41 64.01 235.5 67.65Q241.59 71.3 244.89 78.18Q248.19 85.02 248.19 94.46Q248.19 97.71 247.91 100.44ZM221.27 74.6Q215.63 74.6 212.16 78.64Q208.75 82.62 208.18 90.82L233.56 90.82Q233.45 83.02 230.32 78.81Q227.25 74.6 221.27 74.6ZM284.68 113.99L298.68 65.72L314 65.72L293.28 126L275.63 126L254.8 65.72L270.96 65.72L284.68 113.99ZM376.75 100.44L337.19 100.44Q337.82 108.58 341.97 112.51Q346.19 116.44 352.73 116.44Q356.89 116.44 360.7 115.13Q364.52 113.82 368.39 111.26L374.65 119.85Q370.27 123.55 364.4 125.66Q358.54 127.71 351.77 127.71Q342.15 127.71 335.37 123.72Q328.65 119.74 325.18 112.57Q321.77 105.39 321.77 95.94Q321.77 86.89 325.13 79.66Q328.54 72.38 334.92 68.22Q341.35 64.01 350.06 64.01Q358.25 64.01 364.35 67.65Q370.44 71.3 373.74 78.18Q377.04 85.02 377.04 94.46Q377.04 97.71 376.75 100.44ZM350.11 74.6Q344.48 74.6 341.01 78.64Q337.59 82.62 337.02 90.82L362.41 90.82Q362.3 83.02 359.17 78.81Q356.09 74.6 350.11 74.6ZM414.72 41.64L414.72 108.47Q414.72 115.7 423.26 115.7Q427.59 115.7 432.31 113.82L436.01 124.06Q428.95 127.71 419.67 127.71Q409.94 127.71 404.82 122.19Q399.69 116.66 399.69 106.87L399.69 52.28L381.65 52.28L381.65 41.64L414.72 41.64ZM470.39 35.32Q473.13 35.32 475.23 36.52Q477.34 37.66 478.53 39.7Q479.73 41.75 479.73 44.26Q479.73 46.76 478.53 48.81Q477.34 50.86 475.23 52.06Q473.13 53.25 470.39 53.25Q467.66 53.25 465.5 52.06Q463.39 50.86 462.2 48.81Q461 46.76 461 44.26Q461 41.75 462.2 39.7Q463.39 37.66 465.5 36.52Q467.66 35.32 470.39 35.32ZM448.02 76.36L448.02 65.72L480.13 65.72L480.13 115.36L496.01 115.36L496.01 126L447.45 126L447.45 115.36L465.1 115.36L465.1 76.36L448.02 76.36ZM522.14 126L507.11 126L507.11 65.72L520.2 65.72L521.28 73.18Q525.15 68.62 529.99 66.34Q534.83 64.01 540.41 64.01Q548.49 64.01 552.76 68.68Q557.09 73.35 557.09 81.88L557.09 126L542.06 126L542.06 87.75Q542.06 82.97 541.43 80.35Q540.86 77.67 539.27 76.48Q537.73 75.22 534.72 75.22Q528.11 75.22 522.14 83.25L522.14 126ZM622.95 57.24L626.7 68.96Q623.4 70.16 619.19 70.67Q614.98 71.13 609.23 71.13Q614.92 73.57 617.71 77.33Q620.5 81.03 620.5 86.5Q620.5 92.36 617.48 97.03Q614.52 101.64 608.94 104.26Q603.42 106.82 595.97 106.82Q591.7 106.82 588.28 105.96Q587.2 106.59 586.52 107.78Q585.89 108.98 585.89 110.23Q585.89 112.17 587.37 113.31Q588.91 114.39 593.01 114.39L603.25 114.39Q609.8 114.39 614.86 116.61Q619.99 118.83 622.78 122.76Q625.62 126.63 625.62 131.46Q625.62 137.56 622.04 141.94Q618.51 146.26 611.56 148.54Q604.62 150.82 594.6 150.82Q583.95 150.82 577.81 148.66Q571.72 146.49 569.21 142.39Q566.71 138.24 566.71 131.92L580.08 131.92Q580.08 135.05 581.28 136.87Q582.53 138.64 585.72 139.55Q588.91 140.4 594.88 140.4Q603.48 140.4 607.07 138.41Q610.65 136.36 610.65 132.49Q610.65 129.24 607.86 127.42Q605.13 125.6 600.18 125.6L590.22 125.6Q584.35 125.6 580.43 124.01Q576.55 122.41 574.68 119.74Q572.8 117.06 572.8 113.82Q572.8 110.57 574.51 107.67Q576.27 104.77 579.51 102.72Q573.99 99.82 571.49 95.72Q568.98 91.56 568.98 85.64Q568.98 79.21 572.29 74.31Q575.59 69.42 581.45 66.74Q587.37 64.07 594.94 64.07Q601.54 64.12 606.44 63.27Q611.39 62.42 614.92 60.99Q618.51 59.57 622.95 57.24ZM595.23 74.09Q589.99 74.09 587.09 77.16Q584.24 80.23 584.24 85.53Q584.24 90.94 587.14 94.07Q590.05 97.14 595.28 97.14Q600.41 97.14 603.14 94.12Q605.87 91.05 605.87 85.36Q605.87 74.09 595.23 74.09ZM692.45 47.28L692.45 99.93Q692.45 108.07 689.15 114.39Q685.9 120.65 679.53 124.18Q673.15 127.71 664.22 127.71Q655.17 127.71 648.85 124.24Q642.53 120.76 639.28 114.5Q636.1 108.24 636.1 99.93L636.1 47.28L651.69 47.28L651.69 95.55Q651.69 102.49 652.89 106.87Q654.08 111.26 656.82 113.48Q659.55 115.7 664.22 115.7Q668.88 115.7 671.62 113.48Q674.41 111.26 675.6 106.87Q676.8 102.49 676.8 95.55L676.8 47.28L692.45 47.28ZM736.51 64.01Q758.48 64.01 758.48 95.72Q758.48 105.05 755.75 112.28Q753.07 119.51 747.84 123.61Q742.66 127.71 735.31 127.71Q726.15 127.71 720.4 121.16L720.4 149.22L705.37 150.82L705.37 65.72L718.58 65.72L719.37 73.06Q722.85 68.56 727.29 66.29Q731.73 64.01 736.51 64.01ZM732.13 75.28Q725.41 75.28 720.4 83.19L720.4 110.18Q724.55 116.32 730.99 116.32Q736.85 116.32 739.81 111.43Q742.83 106.48 742.83 95.89Q742.83 84.79 740.15 80.06Q737.53 75.28 732.13 75.28ZM790.02 86.15Q790.02 96.46 792.24 104.37Q794.46 112.22 799.29 119.45Q804.13 126.68 812.61 135.28L804.08 143.25Q794.46 135.11 788.02 126.8Q781.65 118.43 778.18 108.41Q774.7 98.39 774.7 86.15Q774.7 73.92 778.18 63.9Q781.65 53.88 788.02 45.57Q794.46 37.2 804.08 29.06L812.61 37.03Q804.42 45.34 799.52 52.63Q794.68 59.86 792.35 67.94Q790.02 75.96 790.02 86.15ZM864.53 86.15Q864.53 75.96 862.19 67.94Q859.86 59.86 854.97 52.63Q850.13 45.34 841.93 37.03L850.47 29.06Q860.09 37.2 866.46 45.57Q872.9 53.88 876.37 63.9Q879.84 73.92 879.84 86.15Q879.84 98.39 876.37 108.41Q872.9 118.43 866.46 126.8Q860.09 135.11 850.47 143.25L841.93 135.28Q850.41 126.68 855.25 119.45Q860.09 112.22 862.31 104.37Q864.53 96.46 864.53 86.15ZM921.91 65.78Q924.92 65.78 927.43 67.26Q929.99 68.74 931.41 71.3Q932.89 73.8 932.89 76.7Q932.89 79.66 931.41 82.23Q929.99 84.73 927.43 86.21Q924.92 87.69 921.91 87.69Q918.89 87.69 916.33 86.21Q913.82 84.73 912.34 82.23Q910.92 79.66 910.92 76.7Q910.92 73.8 912.4 71.3Q913.88 68.74 916.39 67.26Q918.89 65.78 921.91 65.78ZM921.91 104.82Q924.98 104.82 927.49 106.25Q929.99 107.67 931.41 110.18Q932.89 112.68 932.89 115.7Q932.89 118.32 931.98 121.16Q931.13 123.95 929.02 128.73L920.65 147.8L910.07 147.8L915.65 124.69Q913.43 123.21 912.17 120.88Q910.92 118.49 910.92 115.64Q910.92 112.62 912.34 110.18Q913.82 107.67 916.33 106.25Q918.83 104.82 921.91 104.82Z" />
</svg>